<svg width="32" height="32" viewBox="0 0 32 32" fill="none" xmlns="http://www.w3.org/2000/svg">
<g id="monitor-04">
<path id="Icon" d="M19.9998 22.6667V28H11.9998V22.6667M6.93317 22.6667H25.0665C26.56 22.6667 27.3067 22.6667 27.8771 22.376C28.3789 22.1204 28.7869 21.7124 29.0425 21.2106C29.3332 20.6402 29.3332 19.8935 29.3332 18.4V8.26667C29.3332 6.77319 29.3332 6.02646 29.0425 5.45603C28.7869 4.95426 28.3789 4.54631 27.8771 4.29065C27.3067 4 26.56 4 25.0665 4H6.93317C5.4397 4 4.69296 4 4.12253 4.29065C3.62076 4.54631 3.21282 4.95426 2.95715 5.45603C2.6665 6.02646 2.6665 6.77319 2.6665 8.26667V18.4C2.6665 19.8935 2.6665 20.6402 2.95715 21.2106C3.21282 21.7124 3.62076 22.1204 4.12253 22.376C4.69296 22.6667 5.4397 22.6667 6.93317 22.6667Z" stroke="#8496AD" stroke-width="2.66667" stroke-linecap="round" stroke-linejoin="round"/>
</g>
</svg>
